<?xml version="1.0" encoding="UTF-8"?>
<svg xmlns="http://www.w3.org/2000/svg" xmlns:xlink="http://www.w3.org/1999/xlink" width="512px" height="512px" viewBox="0 0 512 512" version="1.1">
<g id="surface1">
<path style=" stroke:none;fill-rule:nonzero;fill:rgb(0%,0%,0%);fill-opacity:1;" d="M 9.421875 3.765625 L 0 7.1875 L 11.023438 18.652344 C 17.066406 24.8125 25.246094 32.171875 29.15625 34.910156 C 33.246094 37.816406 39.289062 42.4375 42.84375 45.175781 C 46.222656 48.085938 52.800781 52.535156 57.066406 54.929688 L 65.066406 59.378906 L 63.820312 72.042969 C 63.109375 79.058594 62.398438 88.46875 62.398438 93.261719 L 62.222656 101.816406 L 139.378906 139.464844 L 193.777344 189.945312 C 223.644531 217.667969 248.179688 241.285156 248.535156 242.480469 C 248.890625 243.679688 247.109375 251.039062 244.621094 259.082031 C 240.179688 272.941406 240 274.996094 240.179688 314.183594 C 240.355469 336.769531 241.066406 377.328125 241.601562 404.535156 L 242.667969 453.988281 L 263.820312 461.519531 C 275.554688 465.453125 285.6875 469.390625 286.398438 470.074219 C 287.109375 470.929688 286.222656 479.488281 284.445312 489.410156 C 282.84375 499.335938 281.957031 507.894531 282.488281 508.40625 C 283.734375 509.777344 364.445312 512.171875 364.445312 510.800781 C 364.445312 510.460938 353.246094 504.640625 339.554688 497.96875 C 323.554688 490.265625 313.777344 484.449219 311.644531 481.539062 C 306.3125 473.496094 307.023438 459.808594 318.042969 380.234375 L 328.710938 302.714844 L 335.820312 294.503906 L 343.109375 286.117188 L 343.109375 252.234375 L 314.3125 211.164062 L 285.332031 170.265625 L 152.890625 85.046875 C 80.179688 38.332031 20.089844 0.171875 19.554688 0.171875 C 19.023438 0.34375 14.398438 1.882812 9.421875 3.765625 Z M 9.421875 3.765625 "/>
<path style=" stroke:none;fill-rule:nonzero;fill:rgb(0%,0%,0%);fill-opacity:1;" d="M 220.800781 29.777344 C 214.753906 35.25 214.222656 36.277344 214.222656 45.347656 C 214.222656 53.902344 214.753906 55.613281 219.199219 59.207031 C 226.488281 65.199219 236.445312 64.855469 243.023438 58.523438 C 247.289062 54.417969 248.710938 53.902344 252.089844 55.273438 C 255.109375 56.640625 256 58.011719 255.289062 60.578125 C 254.753906 62.632812 253.6875 66.910156 253.15625 70.160156 L 252.265625 76.148438 L 298.488281 109.175781 C 324.089844 127.316406 344.890625 142.546875 344.890625 142.886719 C 344.890625 143.230469 336 147.164062 325.332031 151.613281 C 314.488281 156.0625 305.957031 160.683594 306.488281 161.539062 C 307.554688 164.277344 362.488281 241.796875 365.332031 244.535156 C 367.464844 246.589844 369.957031 246.417969 383.109375 242.996094 C 391.464844 240.769531 398.753906 239.570312 399.289062 240.085938 C 400.179688 240.941406 398.222656 251.894531 395.199219 262.160156 C 394.488281 264.898438 396.265625 265.242188 416.355469 265.242188 L 438.222656 265.242188 L 463.464844 240.769531 L 488.710938 216.46875 L 480.890625 192.855469 C 476.445312 179.679688 472.890625 168.042969 472.890625 166.84375 C 472.890625 165.648438 475.910156 163.59375 479.464844 162.394531 C 483.199219 161.199219 490.488281 156.0625 496.179688 150.757812 C 518.222656 129.539062 516.800781 104.898438 492.089844 82.996094 C 476.445312 68.960938 459.910156 65.199219 439.464844 71.015625 L 430.222656 73.753906 L 430.222656 82.480469 C 430.222656 89.15625 422.578125 122.351562 420.621094 124.40625 C 420.265625 124.75 415.109375 120.8125 409.066406 115.679688 C 401.777344 109.691406 395.378906 105.753906 390.222656 104.554688 C 382.753906 102.84375 256.710938 36.960938 243.734375 28.0625 C 235.199219 22.246094 228.800781 22.757812 220.800781 29.777344 Z M 220.800781 29.777344 "/>
<path style=" stroke:none;fill-rule:nonzero;fill:rgb(0%,0%,0%);fill-opacity:1;" d="M 357.15625 258.222656 C 353.601562 261.648438 352 264.898438 352 268.664062 C 352 276.019531 360.355469 284.0625 368 284.0625 C 375.644531 284.0625 384 276.019531 384 268.664062 C 384 264.898438 382.398438 261.648438 378.84375 258.222656 C 375.289062 254.800781 371.910156 253.261719 368 253.261719 C 364.089844 253.261719 360.710938 254.800781 357.15625 258.222656 Z M 357.15625 258.222656 "/>
<path style=" stroke:none;fill-rule:nonzero;fill:rgb(0%,0%,0%);fill-opacity:1;" d="M 392.179688 281.667969 C 388.265625 283.039062 384.710938 284.40625 384.355469 284.917969 C 383.820312 285.261719 388.089844 298.097656 393.777344 313.15625 C 403.199219 338.480469 404.265625 340.535156 407.820312 339.507812 C 416.535156 336.769531 419.554688 335.402344 419.554688 333.519531 C 419.554688 331.464844 402.3125 284.40625 400.355469 281.328125 C 399.464844 279.957031 397.332031 279.957031 392.179688 281.667969 Z M 392.179688 281.667969 "/>
<path style=" stroke:none;fill-rule:nonzero;fill:rgb(0%,0%,0%);fill-opacity:1;" d="M 349.511719 294.671875 C 348.621094 298.4375 343.820312 334.546875 342.753906 344.8125 C 342.222656 349.777344 342.578125 349.945312 350.578125 350.800781 C 360.535156 352 359.289062 355.25 364.089844 317.089844 L 367.289062 292.960938 L 362.132812 291.9375 C 352.890625 290.222656 350.398438 290.738281 349.511719 294.671875 Z M 349.511719 294.671875 "/>
</g>
</svg>
